<?xml version="1.0" encoding="UTF-8" standalone="no"?>
<!-- Created with Inkscape (http://www.inkscape.org/) -->
<svg
   xmlns:dc="http://purl.org/dc/elements/1.1/"
   xmlns:cc="http://creativecommons.org/ns#"
   xmlns:rdf="http://www.w3.org/1999/02/22-rdf-syntax-ns#"
   xmlns:svg="http://www.w3.org/2000/svg"
   xmlns="http://www.w3.org/2000/svg"
   xmlns:xlink="http://www.w3.org/1999/xlink"
   xmlns:sodipodi="http://sodipodi.sourceforge.net/DTD/sodipodi-0.dtd"
   xmlns:inkscape="http://www.inkscape.org/namespaces/inkscape"
   width="2500.0901"
   height="1052.3622"
   id="svg2"
   sodipodi:version="0.32"
   inkscape:version="0.46"
   sodipodi:docname="indefero-logo5.svg"
   inkscape:output_extension="org.inkscape.output.svg.inkscape"
   version="1.0">
  <defs
     id="defs4">
    <linearGradient
       inkscape:collect="always"
       id="linearGradient3535">
      <stop
         style="stop-color:#8ae234;stop-opacity:1;"
         offset="0"
         id="stop3537" />
      <stop
         style="stop-color:#8ae234;stop-opacity:0;"
         offset="1"
         id="stop3539" />
    </linearGradient>
    <linearGradient
       inkscape:collect="always"
       id="linearGradient3527">
      <stop
         style="stop-color:#9f5e21;stop-opacity:1;"
         offset="0"
         id="stop3529" />
      <stop
         style="stop-color:#9f5e21;stop-opacity:0;"
         offset="1"
         id="stop3531" />
    </linearGradient>
    <linearGradient
       id="linearGradient3309">
      <stop
         style="stop-color:#73d213;stop-opacity:1;"
         offset="0"
         id="stop3311" />
      <stop
         style="stop-color:#4e9a06;stop-opacity:1;"
         offset="1"
         id="stop3313" />
    </linearGradient>
    <linearGradient
       id="linearGradient3300">
      <stop
         style="stop-color:#a56223;stop-opacity:1;"
         offset="0"
         id="stop3302" />
      <stop
         style="stop-color:#492902;stop-opacity:1;"
         offset="1"
         id="stop3304" />
    </linearGradient>
    <linearGradient
       id="linearGradient3214">
      <stop
         style="stop-color:#c17d11;stop-opacity:1;"
         offset="0"
         id="stop3216" />
      <stop
         style="stop-color:#c17d11;stop-opacity:0;"
         offset="1"
         id="stop3218" />
    </linearGradient>
    <linearGradient
       id="linearGradient3200">
      <stop
         id="stop3204"
         offset="1"
         style="stop-color:#feaf36;stop-opacity:1;" />
    </linearGradient>
    <linearGradient
       id="linearGradient3178">
      <stop
         style="stop-color:#8f5902;stop-opacity:1;"
         offset="0"
         id="stop3180" />
      <stop
         style="stop-color:#8f5902;stop-opacity:0;"
         offset="1"
         id="stop3182" />
    </linearGradient>
    <inkscape:perspective
       sodipodi:type="inkscape:persp3d"
       inkscape:vp_x="0 : 526.18109 : 1"
       inkscape:vp_y="0 : 1000 : 0"
       inkscape:vp_z="744.09448 : 526.18109 : 1"
       inkscape:persp3d-origin="372.04724 : 350.78739 : 1"
       id="perspective10" />
    <linearGradient
       inkscape:collect="always"
       xlink:href="#linearGradient3300"
       id="linearGradient3502"
       gradientUnits="userSpaceOnUse"
       x1="255.2104"
       y1="743.95398"
       x2="517.18134"
       y2="334.32626" />
    <linearGradient
       inkscape:collect="always"
       xlink:href="#linearGradient3309"
       id="linearGradient3505"
       gradientUnits="userSpaceOnUse"
       gradientTransform="matrix(0.90055,0,0,0.9256685,8.702072,50.919096)"
       x1="314.81146"
       y1="549.55981"
       x2="603.79364"
       y2="130.80347" />
    <linearGradient
       inkscape:collect="always"
       xlink:href="#linearGradient3527"
       id="linearGradient3533"
       x1="344.48004"
       y1="526.93384"
       x2="279.66428"
       y2="343.77176"
       gradientUnits="userSpaceOnUse" />
    <linearGradient
       inkscape:collect="always"
       xlink:href="#linearGradient3535"
       id="linearGradient3541"
       x1="189.38306"
       y1="542.79291"
       x2="213.16689"
       y2="515.03833"
       gradientUnits="userSpaceOnUse" />
  </defs>
  <sodipodi:namedview
     id="base"
     pagecolor="#ffffff"
     bordercolor="#666666"
     borderopacity="1.0"
     gridtolerance="10000"
     guidetolerance="10"
     objecttolerance="10"
     inkscape:pageopacity="0.0"
     inkscape:pageshadow="2"
     inkscape:zoom="0.26121807"
     inkscape:cx="54.404882"
     inkscape:cy="468.48648"
     inkscape:document-units="px"
     inkscape:current-layer="layer1"
     showgrid="false"
     inkscape:window-width="1279"
     inkscape:window-height="951"
     inkscape:window-x="0"
     inkscape:window-y="25" />
  <metadata
     id="metadata7">
    <rdf:RDF>
      <cc:Work
         rdf:about="">
        <dc:format>image/svg+xml</dc:format>
        <dc:type
           rdf:resource="http://purl.org/dc/dcmitype/StillImage" />
      </cc:Work>
    </rdf:RDF>
  </metadata>
  <g
     inkscape:label="Layer 1"
     inkscape:groupmode="layer"
     id="layer1">
    <rect
       style="opacity:1;fill:#2e1c09;fill-opacity:1;fill-rule:nonzero;stroke:none;stroke-width:9.5;stroke-linecap:round;stroke-linejoin:miter;stroke-miterlimit:4;stroke-dasharray:none;stroke-dashoffset:0;stroke-opacity:1"
       id="rect3479"
       width="2327.0989"
       height="738.08856"
       x="28.861307"
       y="47.247032"
       ry="0"
       inkscape:export-filename="/home/loa/Projects/indefero.net/media/idfn/img/indefero-logo.png"
       inkscape:export-xdpi="10.974293"
       inkscape:export-ydpi="10.974293" />
    <path
       style="fill:url(#linearGradient3505);fill-opacity:1;fill-rule:nonzero;stroke:#4e9a06;stroke-width:8.6737175;stroke-linecap:round;stroke-linejoin:miter;stroke-miterlimit:4;stroke-dasharray:none;stroke-dashoffset:0;stroke-opacity:1"
       d="M 380.09452,80.164434 C 325.61878,80.164434 277.73831,109.63179 250.44346,154.01542 C 173.08362,161.38346 112.57489,224.77008 112.57489,301.77525 C 112.57489,328.86745 120.06848,354.27485 133.14683,376.14693 C 107.0966,405.29318 91.243109,443.82739 91.243109,486.07006 C 91.243109,576.90189 164.55915,650.60763 254.88993,650.60763 C 271.09473,650.60763 286.73713,648.22781 301.52154,643.80975 C 339.34139,666.58702 385.02955,679.88189 434.18381,679.88189 C 564.58392,679.88189 670.40931,586.17696 670.40933,470.70975 C 670.40933,424.81133 653.66603,382.36023 625.32555,347.85618 C 628.73221,333.4146 630.53185,318.20844 630.53185,302.49843 C 630.53185,212.12462 570.29216,138.17535 494.43623,133.1011 C 466.29611,100.61828 425.47491,80.164434 380.09452,80.164434 z"
       id="path2397"
       inkscape:export-filename="/home/loa/Projects/indefero.net/media/idfn/img/indefero-logo.png"
       inkscape:export-xdpi="10.974293"
       inkscape:export-ydpi="10.974293" />
    <path
       style="fill:url(#linearGradient3502);fill-opacity:1;fill-rule:nonzero;stroke:none;stroke-width:2.40000010000000019;stroke-linecap:round;stroke-linejoin:miter;stroke-miterlimit:4;stroke-dashoffset:0;stroke-opacity:1"
       d="M 480.78826,286.70465 C 471.74217,303.14801 466.59919,316.91871 462.21007,324.32034 C 458.4305,332.41806 437.64848,381.27668 422.04792,410.85567 C 411.43569,432.35724 400.69212,454.31445 384.28125,472.09375 C 378.04049,477.37818 367.78727,475.23418 363.26933,468.71428 C 353.17919,458.89555 343.45836,448.70244 333.24758,439.0075 C 317.77144,422.84753 305.56098,403.5827 297.62915,382.65768 C 289.88676,365.17614 282.06423,347.03016 268.29833,333.33399 C 266.87079,332.00892 257.87723,342.72971 251.17151,350.13535 C 257.91944,385.02379 261.45712,393.83832 272.16171,424.59112 C 277.97988,444.06591 287.52802,462.10601 295.01596,480.9416 C 301.95377,497.73482 307.73336,515.11749 310.44798,533.13227 C 316.97458,571.06863 313.78852,610.29702 303.54294,647.28446 C 295.53018,678.50408 283.87873,708.83248 268.40625,737.125 C 267.48586,741.82958 273.28765,745.0451 277.32903,743.60868 C 316.10441,740.6132 354.85515,736.72668 393.76368,736.01019 C 432.08809,735.62752 470.30781,739.07963 508.44819,742.41755 C 512.60098,742.7876 516.75356,743.16004 520.90625,743.53125 C 522.73666,738.32781 518.93119,733.37885 515.5,729.84375 C 505.37922,718.85052 495.85001,707.33025 486.04792,696.05659 C 472.12065,679.28224 459.49275,660.74518 453.48949,639.55179 C 445.74909,613.54378 446.01072,585.89039 449.3871,559.18722 C 454.13621,520.65521 457.70434,476.90793 468.12716,439.5747 C 475.03595,414.82825 499.26944,325.16045 505.28557,302.9463 C 506.6387,297.45482 507.70151,291.88947 508.4375,286.28125 C 508.3006,286.02979 501.31023,285.50092 480.78826,286.70465 z"
       id="rect2383"
       sodipodi:nodetypes="ccscscscccccccccccccccsccc"
       inkscape:export-filename="/home/loa/Projects/indefero.net/media/idfn/img/indefero-logo.png"
       inkscape:export-xdpi="10.974293"
       inkscape:export-ydpi="10.974293" />
    <path
       style="fill:url(#linearGradient3533);fill-opacity:1;fill-rule:evenodd;stroke:none;stroke-width:0.25000000000000000pt;stroke-linecap:butt;stroke-linejoin:miter;stroke-opacity:1"
       d="M 261.61445,343.77177 C 258.29796,347.16111 256.78029,348.5143 253.80525,350.94005 C 257.34812,367.72635 271.24491,410.33512 274.92704,420.91638 C 283.98781,446.95407 298.27703,470.44926 305.96388,496.81755 C 312.6285,519.6793 316.95796,541.99153 318.18734,565.63445 C 319.43684,589.66412 317.35056,617.16231 311.24725,640.25675 C 304.22544,666.82669 289.67219,709.81256 278.71119,735.38821 C 291.85032,736.74081 303.9092,734.30172 317.58611,733.28738 C 330.8032,732.91089 346.51711,728.41602 360.28427,728.58961 C 361.70248,692.98386 362.28914,639.87401 361.91883,606.08799 C 361.53577,571.13943 356.10739,550.49134 343.0934,518.4162 C 332.76842,492.96857 313.62977,457.39972 298.73254,430.34797 C 283.83531,403.29622 270.0195,371.02282 261.61445,343.77177 z"
       id="path3450"
       sodipodi:nodetypes="ccsssscccsssc"
       inkscape:export-filename="/home/loa/Projects/indefero.net/media/idfn/img/indefero-logo.png"
       inkscape:export-xdpi="10.974293"
       inkscape:export-ydpi="10.974293" />
    <path
       style="fill:url(#linearGradient3541);fill-opacity:1;fill-rule:evenodd;stroke:none;stroke-width:0.25000000000000000pt;stroke-linecap:butt;stroke-linejoin:miter;stroke-opacity:1"
       d="M 113.16529,429.39362 C 113.16529,429.39362 104.64326,454.1652 103.03794,468.69107 C 101.44344,483.11903 102.46825,506.23771 105.4804,520.43755 C 108.98801,536.97308 121.29761,558.93795 130.281,573.25668 C 138.61935,586.54728 158.09648,604.51753 171.10612,613.28778 C 185.25725,622.82754 205.57955,633.4095 222.19789,637.29436 C 239.00231,641.22271 255.43702,641.52676 272.63495,640.09436 C 278.21565,639.62955 302.26007,633.26385 302.26007,633.26385 L 308.87233,606.09973 L 113.16529,429.39362 z"
       id="path3461"
       sodipodi:nodetypes="cssssssccc"
       inkscape:export-filename="/home/loa/Projects/indefero.net/media/idfn/img/indefero-logo.png"
       inkscape:export-xdpi="10.974293"
       inkscape:export-ydpi="10.974293" />
    <text
       xml:space="preserve"
       style="font-size:500px;font-style:normal;font-variant:normal;font-weight:normal;font-stretch:normal;writing-mode:lr-tb;text-anchor:start;fill:#eeeeec;fill-opacity:1;stroke:none;stroke-width:1pt;stroke-linecap:butt;stroke-linejoin:miter;stroke-opacity:1;font-family:FromageCondOblique;-inkscape-font-specification:FromageCondOblique"
       x="739.95435"
       y="534.80164"
       id="text3481"
       inkscape:export-filename="/home/loa/Projects/indefero.net/media/idfn/img/indefero-logo.png"
       inkscape:export-xdpi="10.974293"
       inkscape:export-ydpi="10.974293"><tspan
         sodipodi:role="line"
         id="tspan3483"
         x="739.95435"
         y="534.80164">indefero</tspan></text>
    <text
       xml:space="preserve"
       style="font-size:150px;font-style:normal;font-variant:normal;font-weight:normal;font-stretch:normal;text-align:start;line-height:125%;writing-mode:lr-tb;text-anchor:start;fill:#eeeeec;fill-opacity:1;stroke:none;stroke-width:1pt;stroke-linecap:butt;stroke-linejoin:miter;stroke-opacity:1;font-family:FromageCondOblique;-inkscape-font-specification:FromageCondOblique"
       x="744.05432"
       y="711.55402"
       id="text3485"
       sodipodi:linespacing="125%"
       inkscape:export-filename="/home/loa/Projects/indefero.net/media/idfn/img/indefero-logo.png"
       inkscape:export-xdpi="10.974293"
       inkscape:export-ydpi="10.974293"><tspan
         sodipodi:role="line"
         id="tspan3487"
         x="744.05432"
         y="711.55402"
         style="letter-spacing:5.01085806">Better code management</tspan></text>
  </g>
</svg>
