<?xml version="1.0" encoding="UTF-8" standalone="no"?>
<!-- Created with Inkscape (http://www.inkscape.org/) -->
<svg
   xmlns:dc="http://purl.org/dc/elements/1.1/"
   xmlns:cc="http://creativecommons.org/ns#"
   xmlns:rdf="http://www.w3.org/1999/02/22-rdf-syntax-ns#"
   xmlns:svg="http://www.w3.org/2000/svg"
   xmlns="http://www.w3.org/2000/svg"
   xmlns:sodipodi="http://sodipodi.sourceforge.net/DTD/sodipodi-0.dtd"
   xmlns:inkscape="http://www.inkscape.org/namespaces/inkscape"
   width="1052.3622"
   height="744.09448"
   id="svg2"
   sodipodi:version="0.32"
   inkscape:version="0.46"
   version="1.0"
   sodipodi:docname="indefero-logo.svg"
   inkscape:output_extension="org.inkscape.output.svg.inkscape">
  <defs
     id="defs4">
    <inkscape:perspective
       sodipodi:type="inkscape:persp3d"
       inkscape:vp_x="0 : 526.18109 : 1"
       inkscape:vp_y="0 : 1000 : 0"
       inkscape:vp_z="744.09448 : 526.18109 : 1"
       inkscape:persp3d-origin="372.04724 : 350.78739 : 1"
       id="perspective10" />
  </defs>
  <sodipodi:namedview
     id="base"
     pagecolor="#ffffff"
     bordercolor="#666666"
     borderopacity="1.0"
     gridtolerance="10000"
     guidetolerance="10"
     objecttolerance="10"
     inkscape:pageopacity="0.0"
     inkscape:pageshadow="2"
     inkscape:zoom="1"
     inkscape:cx="538.31563"
     inkscape:cy="375.31517"
     inkscape:document-units="px"
     inkscape:current-layer="layer1"
     showgrid="false"
     inkscape:window-width="1279"
     inkscape:window-height="951"
     inkscape:window-x="0"
     inkscape:window-y="25" />
  <metadata
     id="metadata7">
    <rdf:RDF>
      <cc:Work
         rdf:about="">
        <dc:format>image/svg+xml</dc:format>
        <dc:type
           rdf:resource="http://purl.org/dc/dcmitype/StillImage" />
      </cc:Work>
    </rdf:RDF>
  </metadata>
  <g
     inkscape:label="Layer 1"
     inkscape:groupmode="layer"
     id="layer1">
    <g
       id="g2401"
       transform="matrix(1.21,0,0,1.21,-216.85419,33.719307)"
       style="fill:#8ae234;stroke:#4e9a06;stroke-width:2.4000001;stroke-miterlimit:4;stroke-dasharray:none"
       inkscape:export-filename="/home/loa/Projects/indefero/logo/powered-by-indefero.png"
       inkscape:export-xdpi="12.330909"
       inkscape:export-ydpi="12.330909">
      <path
         id="path2383"
         d="M 396.19089,173.14471 C 388.51468,173.95132 381.78894,178.53877 376.60988,184.03602 C 369.37391,191.91606 364.91246,202.1151 363.2879,212.63964 C 361.5643,223.92137 363.02865,235.84599 368.36476,246.01235 C 372.15083,253.25619 377.89637,259.93574 385.66177,262.98007 C 389.52655,264.51944 394.64539,264.01291 397.34089,260.56971 C 399.98446,257.00261 400.03552,252.33571 400.19845,248.08104 C 400.24345,240.4705 399.65096,232.8256 400.65463,225.24911 C 401.52594,215.74288 404.69407,206.6816 407.37075,197.5806 C 408.53317,193.13727 409.62169,188.55252 409.34574,183.93072 C 408.85757,179.30596 405.76515,174.6203 401.04934,173.52402 C 399.47445,173.0752 397.81522,173.03454 396.19089,173.14471 z"
         style="fill:#8ae234;fill-opacity:1;fill-rule:nonzero;stroke:#4e9a06;stroke-width:2.4000001;stroke-linecap:round;stroke-linejoin:miter;stroke-miterlimit:4;stroke-dasharray:none;stroke-dashoffset:0;stroke-opacity:1" />
      <path
         id="path2391"
         d="M 433.14691,149.28687 C 440.35281,152.05276 445.66203,158.22465 449.24185,164.87502 C 454.19176,174.35936 455.86147,185.3656 454.70671,195.95197 C 453.45166,207.29539 448.95089,218.43468 441.16537,226.87356 C 435.63345,232.89065 428.35489,237.85554 420.06619,238.78632 C 415.93465,239.27292 411.12133,237.45884 409.40885,233.43528 C 407.77858,229.30552 408.93715,224.78444 409.88097,220.63259 C 411.80725,213.26972 414.35818,206.03866 415.34967,198.46058 C 416.96842,189.05274 416.25348,179.48024 416.02353,169.99656 C 416.05073,165.40378 416.18593,160.69353 417.64868,156.30064 C 419.31719,151.95982 423.51697,148.23419 428.35584,148.3958 C 429.99322,148.36988 431.60645,148.76004 433.14691,149.28687 z"
         style="fill:#8ae234;fill-opacity:1;fill-rule:nonzero;stroke:#4e9a06;stroke-width:2.4000001;stroke-linecap:round;stroke-linejoin:miter;stroke-miterlimit:4;stroke-dasharray:none;stroke-dashoffset:0;stroke-opacity:1" />
    </g>
    <text
       xml:space="preserve"
       style="font-size:144px;font-style:normal;font-variant:normal;font-weight:normal;font-stretch:normal;text-align:start;line-height:100%;writing-mode:lr-tb;text-anchor:start;fill:#000000;fill-opacity:1;stroke:none;stroke-width:1pt;stroke-linecap:butt;stroke-linejoin:miter;stroke-opacity:1;font-family:FromageCondOblique;-inkscape-font-specification:FromageCondOblique"
       x="337"
       y="355.09448"
       id="text2397"
       sodipodi:linespacing="100%"
       inkscape:export-filename="/home/loa/Projects/indefero/logo/powered-by-indefero.png"
       inkscape:export-xdpi="12.330909"
       inkscape:export-ydpi="12.330909"><tspan
         sodipodi:role="line"
         id="tspan2399"
         x="337"
         y="355.09448">InDefero</tspan></text>
    <text
       xml:space="preserve"
       style="font-size:40px;font-style:normal;font-variant:normal;font-weight:normal;font-stretch:semi-condensed;text-align:start;line-height:125%;writing-mode:lr-tb;text-anchor:start;fill:#888a85;fill-opacity:1;stroke:none;stroke-width:1pt;stroke-linecap:butt;stroke-linejoin:miter;stroke-opacity:1;font-family:DejaVu Sans;-inkscape-font-specification:DejaVu Sans Semi-Condensed"
       x="346"
       y="241.09448"
       id="text3195"
       sodipodi:linespacing="125%"
       inkscape:export-filename="/home/loa/Projects/indefero/logo/powered-by-indefero.png"
       inkscape:export-xdpi="12.330909"
       inkscape:export-ydpi="12.330909"><tspan
         sodipodi:role="line"
         id="tspan3197"
         x="346"
         y="241.09448">Powered by</tspan></text>
  </g>
</svg>
